<svg width="64" height="64" viewBox="0 0 64 64" fill="none" xmlns="http://www.w3.org/2000/svg">
<g clip-path="url(#clip0_1086_70351)">
<rect width="64" height="64" fill="white"/>
<path d="M29.8359 54.7031C27.5625 54.7031 25.4062 54.457 23.3672 53.9648C21.3281 53.4727 19.4297 52.7695 17.6719 51.8555C15.9141 50.918 14.3203 49.793 12.8906 48.4805C11.4609 47.1445 10.2188 45.6445 9.16406 43.9805L13.9453 40.7109C14.8828 41.9531 15.9258 43.0664 17.0742 44.0508C18.2227 45.0352 19.4766 45.8789 20.8359 46.582C22.1953 47.2617 23.6367 47.7891 25.1602 48.1641C26.707 48.5156 28.3359 48.6914 30.0469 48.6914C32.6484 48.6914 35.0508 48.2461 37.2539 47.3555C39.4805 46.4414 41.4023 45.1758 43.0195 43.5586C44.6367 41.918 45.8906 39.9492 46.7812 37.6523C47.6953 35.3555 48.1523 32.8008 48.1523 29.9883C48.1523 27.1992 47.6836 24.668 46.7461 22.3945C45.8086 20.0977 44.5195 18.1289 42.8789 16.4883C41.2383 14.8477 39.3047 13.582 37.0781 12.6914C34.8516 11.8008 32.4375 11.3555 29.8359 11.3555C28.1953 11.3555 26.625 11.543 25.125 11.918C23.625 12.2695 22.2188 12.7852 20.9062 13.4648C19.6172 14.1445 18.4336 14.9766 17.3555 15.9609C16.2773 16.9453 15.3516 18.0586 14.5781 19.3008L9.48047 16.0312C10.4414 14.3906 11.6133 12.9141 12.9961 11.6016C14.4023 10.2656 15.9844 9.14062 17.7422 8.22656C19.5 7.28906 21.3984 6.57422 23.4375 6.08203C25.4766 5.56641 27.6094 5.30859 29.8359 5.30859C33.4219 5.30859 36.7266 5.90625 39.75 7.10156C42.7734 8.29688 45.375 9.97266 47.5547 12.1289C49.7344 14.2852 51.4336 16.8867 52.6523 19.9336C53.8945 22.957 54.5156 26.3086 54.5156 29.9883C54.5156 33.6914 53.8945 37.0664 52.6523 40.1133C51.4102 43.1367 49.6875 45.7383 47.4844 47.918C45.2812 50.0742 42.668 51.75 39.6445 52.9453C36.6445 54.1172 33.375 54.7031 29.8359 54.7031ZM23.4023 32.3438V26.5781H50.8242V32.3438H23.4023Z" fill="black"/>
</g>
<defs>
<clipPath id="clip0_1086_70351">
<rect width="64" height="64" fill="white"/>
</clipPath>
</defs>
</svg>
